<svg width="126" height="46" viewBox="0 0 126 46" fill="none" xmlns="http://www.w3.org/2000/svg">
<g clip-path="url(#clip0_2_550)">
<path d="M1.52588e-05 17.0437L5.58409 26.49L7.81771 24.3495L1.72177 15.2754L1.52588e-05 17.0437Z" fill="url(#paint0_linear_2_550)"/>
<path d="M83.1096 9.59822L82.877 10.8546L85.5294 9.97049L85.2037 8.43488L83.1096 9.59822Z" fill="#0071B9"/>
<path d="M67.4742 1.08252L58.8655 10.9477L61.3783 10.2497L69.5683 0.0122375L67.4742 1.08252Z" fill="url(#paint1_linear_2_550)"/>
<path d="M113.589 14.5774L115.683 13.4605L115.078 18.7654L113.589 14.5774Z" fill="#1D2C5E"/>
<path d="M100.42 17.9743L102.328 18.3931L104.701 17.2298L102.607 16.4387L100.42 17.9743Z" fill="#1D2C5E"/>
<path d="M35.645 12.3903L35.9242 18.4862L38.5767 17.4625L37.7856 11.2269L35.645 12.3903Z" fill="url(#paint2_linear_2_550)"/>
<path d="M102.468 10.5289L100.374 11.6922L100.42 17.9743L102.561 16.904L103.212 13.8328L102.468 10.5289Z" fill="url(#paint3_linear_2_550)"/>
<path d="M102.189 18.3931L99.8618 39.0542L103.585 38.3097L104.283 17.2763L102.189 18.3931Z" fill="#312370"/>
<path d="M106.702 40.0314L106.795 42.8235L113.915 45.1036L116.056 43.9868L109.029 38.5423L101.956 37.9374L99.8618 39.0542L106.702 40.0314Z" fill="#21386E"/>
<path d="M80.2711 35.0988L81.9928 34.1681L83.1562 36.2156L84.7848 35.3315L85.1106 38.0305L95.4877 39.8918L97.5352 38.7285L83.2492 30.0266L73.1048 31.7484L71.1504 33.6563L80.2711 35.0988Z" fill="#21386E"/>
<path d="M76.9671 9.69128L74.8731 10.8546L71.1504 33.6563L73.2444 32.5394L76.8276 19.7426L76.9671 9.69128Z" fill="url(#paint4_linear_2_550)"/>
<path d="M60.4011 12.7625L58.7258 13.6467L58.8654 14.2051L62.8208 11.6922L61.0991 9.83089L58.8654 10.9477L60.4011 12.7625Z" fill="#1D2C5E"/>
<path d="M64.9148 39.7057L48.023 31.3296L50.1171 29.7009L67.0089 38.5423L64.9148 39.7057Z" fill="#21386E"/>
<path d="M49.6052 8.52793L47.0458 13.3675L49.7448 12.5764L51.6992 7.36458L49.6052 8.52793Z" fill="#1D2C5E"/>
<path d="M26.3382 28.5841L24.1977 30.0732C24.1977 30.0732 24.663 32.4929 25.268 34.1681C25.8729 35.8434 27.2689 37.1928 27.2689 37.1928C28.1996 38.077 29.2699 38.7285 30.5263 39.1007C32.8995 39.7987 35.5985 39.3334 37.9252 37.8443C38.5301 37.472 39.3677 36.8671 39.8796 36.3552C37.5994 37.7512 26.3382 28.5841 26.3382 28.5841Z" fill="url(#paint5_linear_2_550)"/>
<path d="M37.9252 18.0209L39.8796 39.7522L47.9765 38.5889L50.1171 37.472L40.1123 16.7179L38.0648 17.4159L35.9242 18.4862L37.9252 18.0209Z" fill="#1D2C5E"/>
<path d="M7.67812 25.5594L16.7057 45.9878L25.2679 43.2422L27.362 41.8462L9.58601 23.2327L7.35238 24.5821L5.58409 26.49L7.67812 25.5594Z" fill="url(#paint6_linear_2_550)"/>
<path d="M96.9767 35.1919L97.1163 36.2156C97.8609 36.1226 98.6054 36.0295 99.3034 35.7968C100.095 35.5176 101.77 34.7731 102.375 34.2147C102.095 34.3077 98.1866 35.3315 96.9767 35.1919Z" fill="#1D2C5E"/>
<path d="M66.6832 29.9801L67.0089 31.6088C68.7307 31.3296 70.2197 30.7246 71.7088 29.8405C72.6395 29.2821 73.6167 28.491 73.9424 28.2583C73.7098 28.3979 66.6832 29.9801 66.6832 29.9801Z" fill="#1D2C5E"/>
<path d="M19.0552 44.0399L18.4037 42.5508L9.8415 23.4719L9.65536 23.0996L9.28309 23.2857L9.00389 23.4253L7.46827 24.1699C7.2356 23.7976 6.86333 23.1461 6.63066 22.7273L3.18715 16.9106L2.303 15.3749L3.79209 14.4443C5.18811 13.5601 6.77026 12.7225 8.53855 11.978C11.9821 10.5354 15.4721 9.74434 18.6829 9.74434C19.7532 9.74434 20.777 9.83741 21.7076 9.97701C23.2898 10.1631 24.7789 10.675 25.9888 11.5126C27.8036 12.5364 29.2461 14.1185 30.0372 15.9799C30.6887 17.5155 30.8283 19.3303 30.4095 21.1917L30.1768 22.3085L31.1075 21.657C31.7124 21.1917 32.3639 20.8194 33.0619 20.5402C34.2718 20.0283 35.5282 19.7491 36.7846 19.7491C37.9945 19.7491 39.1113 19.9818 40.1351 20.4471L40.7866 20.7264L40.74 19.9818L40.4608 16.864L40.4143 16.3522L39.9489 16.4918L38.5064 16.864L38.2737 11.5592L48.8835 8.16219L48.7904 12.3037L49.5815 12.4898L51.9082 8.06912L58.8417 14.2116L59.1209 14.4908L59.4001 14.2116C60.3308 13.3275 61.4942 12.5829 62.7506 12.071L63.2624 11.8384L62.8902 11.373L61.6338 9.83741L69.5911 0.670227L73.7791 6.90577L67.404 10.3493L66.008 11.0938L67.6366 11.1404C70.6613 11.1869 73.3603 12.4898 75.1751 14.7235L75.8266 15.5611L76.2454 16.073L75.5474 16.8175L75.0821 17.3294L73.4999 19.0511L73.2207 19.3769L73.5464 19.6561L75.0355 21.0056L75.5939 21.5174L75.7335 20.7729L76.2919 17.2363L76.4315 16.3056L76.5712 15.3749L77.4088 10.1166H85.3195L85.3661 9.74434L85.5057 8.8602H92.3927L94.0679 19.3769L94.161 20.0749L94.7194 19.6561C95.4174 19.1442 96.1619 18.7719 96.953 18.4462C98.0233 18.0274 99.0936 17.8412 100.21 17.8412C101.513 17.8412 102.77 18.1205 103.84 18.7254C103.887 18.7254 103.887 18.7719 103.98 18.8185L104.492 19.0046L104.538 18.4462L104.678 17.2828L104.724 16.9106L104.352 16.8175L102.956 16.4918L102.909 11.0008L113.566 13.3275L114.357 17.2828H115.194L116.032 13.8859L124.92 16.0264L115.799 43.4349L109.331 41.3874L109.285 38.8746V38.5023L108.912 38.4558L102.444 37.5251L102.816 34.2212L102.909 33.4301L102.211 33.8024C101.886 33.9885 101.56 34.1281 101.234 34.2212C100.164 34.64 99.0936 34.8261 98.0233 34.8261C97.6976 34.8261 97.4184 34.8261 97.0926 34.7796L96.5342 34.7331L96.6273 35.2915L97.0926 38.1766L87.6462 36.5014L87.1344 32.2202L86.9947 30.8242L86.3433 32.0341L85.273 34.1281L83.272 30.4519L82.6671 29.3351L82.481 30.5915L82.0622 33.4301L73.7791 32.1272L74.4306 28.2183L74.5702 27.3342L73.7791 27.7995C72.4296 28.5906 70.8475 29.2421 69.0327 29.6609C68.3812 29.8005 67.7297 29.9401 67.0317 29.9866L66.6594 30.0331V37.8508L50.3725 29.8005L49.7676 29.5213V37.1063L42.4618 38.1766L42.136 34.8727L42.043 33.9885L41.3915 34.5935C40.4143 35.5241 39.344 36.2687 38.1807 36.7806C36.9708 37.2924 35.7144 37.5716 34.5045 37.5716C33.2481 37.5716 32.0847 37.2924 31.0144 36.8271C29.06 35.8964 27.6175 34.1747 27.0125 31.9876C26.7333 30.9638 26.6402 29.8935 26.7798 28.7767L26.9194 27.6134L26.0818 28.451C25.4769 29.0094 24.8254 29.5678 24.1274 30.0797L23.8947 30.2658L23.9878 30.545L26.4541 39.9449L26.8729 41.6201L25.2442 42.132L20.6374 43.621L19.0552 44.0399ZM21.1027 18.7719C20.87 18.7719 20.6374 18.7719 20.3582 18.8185L20.0324 18.865L19.5671 18.9581L19.7067 19.4234L19.7998 19.7026L21.1027 24.0303L21.2423 24.4491L21.4284 25.054L21.8938 24.6352L22.2195 24.356C23.5225 23.1927 23.9413 22.0293 23.6621 20.5402C23.4759 19.6561 22.8245 19.2373 22.4057 19.0511C22.1265 18.865 21.6146 18.7719 21.1027 18.7719ZM56.5616 18.9115L55.7239 19.7026L53.5369 21.7966L53.0715 22.262L53.6765 22.4946L56.0032 23.3788L56.7012 23.658L56.5616 22.9134C56.3754 21.9362 56.3289 20.959 56.422 20.0283L56.5616 18.9115ZM66.0545 16.4918C65.1703 16.4918 64.2862 16.864 63.6813 17.562C62.7506 18.5858 62.5644 20.1214 63.2159 21.3313L63.402 21.657L63.6813 22.1689L64.1001 21.7036L64.3793 21.4244L67.5901 17.7947L67.8228 17.5155L68.2416 17.0502L67.6832 16.8175L67.3109 16.6779C66.8456 16.5848 66.4733 16.4918 66.0545 16.4918Z" fill="#FFCB05"/>
<path d="M70.9177 21.8832L70.8247 21.9762C70.8712 21.9762 70.9177 21.9297 70.9177 21.8832Z" fill="#7D7F68"/>
<path d="M73.7098 19.3703L75.2919 17.6486L74.7335 18.207V18.1605L74.2682 18.6723L72.686 20.3476L74.1751 21.697L74.4543 20.0218L75.1989 20.6733L73.7098 19.3703Z" fill="#7D7F68"/>
<path d="M73.7098 19.3703L75.1989 20.6733L75.7573 17.1367L75.2919 17.6486L73.7098 19.3703Z" fill="#7D7F68"/>
<path d="M62.6812 23.6049C62.8208 23.7445 62.6812 23.6515 62.8208 23.7445L63.7981 23.0465C63.6585 22.9535 63.5188 22.8139 63.3792 22.7208C61.9832 21.4178 62.3555 18.5327 63.2396 16.9506C60.8199 18.905 60.9595 21.8832 62.6812 23.6049Z" fill="#C7A008"/>
<path d="M74.4543 25.2336C72.8256 26.5831 71.0108 27.4207 68.591 28.0257C68.0792 28.1653 67.5208 28.2583 67.0554 28.2583C63.1931 28.6306 59.9823 26.8623 58.7724 24.0237C58.6328 23.698 58.4932 23.3257 58.4001 22.9535C57.8417 20.5337 58.3071 18.3931 59.5169 16.6714C59.6565 16.4852 59.7496 16.3456 59.8892 16.206C59.8427 16.2526 59.7496 16.2991 59.7031 16.3456C59.2377 16.7644 58.8189 17.1833 58.4932 17.6951C57.2833 19.3703 56.818 21.5574 57.3764 23.9772C57.4694 24.3495 57.5625 24.7217 57.7486 25.0475C58.9585 27.9326 62.2159 29.7009 66.0317 29.3286C66.5436 29.2821 67.0554 29.189 67.6138 29.0494C70.0336 28.4445 71.895 27.6069 73.4771 26.2574C73.8494 25.9316 74.2682 25.5594 74.6405 25.1871L74.5939 25.1406C74.5009 25.1871 74.4543 25.1871 74.4543 25.2336Z" fill="#C7A008"/>
<path d="M47.325 17.9278L51.6061 11.8784L51.42 11.7388L47.2785 17.5555L47.325 17.9278Z" fill="#C7A008"/>
<path d="M75.7573 17.1367L75.1989 20.6733L74.4543 20.0218L74.1751 21.697L72.686 20.3476L74.2682 18.6723L74.7335 18.1605V18.207L75.2919 17.6486L75.7573 17.1367Z" fill="#C7A008"/>
<path d="M70.4524 7.17846L71.9415 6.52698L69.196 2.9904L68.3118 4.29335L70.4524 7.17846Z" fill="#C7A008"/>
<path d="M28.758 15.9268C21.7779 7.45766 9.26029 12.018 4.79303 15.9734L4.97917 16.2991C6.00291 15.6942 7.11973 15.1823 8.23654 14.6704C12.7038 12.7625 16.9849 12.2041 20.3819 12.8091C21.5918 12.9487 22.8482 13.3209 23.965 14.0655C25.5006 14.9496 26.664 16.1595 27.362 17.7417C28.5719 20.5337 27.5016 24.2564 24.663 27.3276C28.2461 24.0237 30.7124 20.8594 28.758 15.9268Z" fill="#C7A008"/>
<path d="M42.9509 25.792C42.9043 25.6524 42.9043 25.4663 42.8578 25.3267C42.4855 23.9307 41.6479 22.8139 40.5311 22.0693C38.7628 20.8594 36.25 20.6268 33.7837 21.6505C32.4807 22.2089 31.3639 23.0931 30.4332 24.1168C31.1312 23.5119 31.9223 23.0465 32.7599 22.6743C35.2262 21.604 37.7391 21.8832 39.5074 23.0931C40.6242 23.8376 41.4618 24.9544 41.834 26.3504C41.8806 26.49 41.9271 26.6762 41.9271 26.8158C42.0202 27.3742 42.0667 27.8861 42.0667 28.4445C42.0202 30.0731 41.4152 31.7018 40.438 33.0979C40.2984 33.3305 40.1123 33.5167 39.9262 33.7493C40.4846 33.2375 40.9964 32.7256 41.4152 32.1206C42.439 30.7246 42.9974 29.0959 43.0905 27.4672C43.0905 26.9088 43.0439 26.3504 42.9509 25.792Z" fill="#C7A008"/>
<path d="M36.1103 23.7445C36.1103 23.7445 37.1341 22.7208 37.0876 22.7208C35.8311 22.6743 35.2727 23.8841 35.2262 23.9772C35.5054 23.8376 35.7846 23.7911 36.1103 23.7445Z" fill="#C7A008"/>
<path d="M38.4836 25.1871C38.5301 25.3732 38.5767 25.5128 38.5767 25.699C38.5767 25.9782 38.5301 26.2108 38.3905 26.4435C38.5767 26.3504 40.0657 25.6059 39.5073 24.1168C39.5539 24.2099 38.4371 25.1871 38.4836 25.1871Z" fill="#C7A008"/>
<path d="M32.7134 26.0712C32.7134 25.4663 33.7837 23.9307 34.1094 23.4188C32.4342 24.4891 31.6897 25.9316 31.6897 27.0484C31.6897 29.0029 33.4114 30.585 35.4589 30.585C36.4361 30.585 38.2044 30.0731 39.3677 28.2118C38.7628 28.6306 37.2272 29.5613 36.3896 29.5613C34.3421 29.5613 32.7134 28.0257 32.7134 26.0712Z" fill="#C7A008"/>
<path d="M47.0923 27.8395L47.1389 35.7038L48.3953 35.7968L48.1161 26.8158L47.0923 27.8395Z" fill="#C7A008"/>
<path d="M39.9261 12.8091V13.5071L45.8825 11.7388L46.3013 19.3238L47.325 17.9278L47.0924 10.3428L39.9261 12.8091Z" fill="#C7A008"/>
<path d="M57.8417 15.508L52.3041 10.3893L51.6061 11.8784L56.5387 16.4852L57.8417 15.508Z" fill="#C7A008"/>
<path d="M57.0041 25.0475L50.4428 22.8604L49.5121 23.8841L56.0269 26.49C56.7714 27.8861 57.8883 29.0959 59.2843 29.9335C60.6338 30.7712 62.2159 31.283 63.8446 31.4226V34.6335L64.8683 35.1453L65.1941 30.3058L57.0041 25.0475Z" fill="#C7A008"/>
<path d="M67.5207 24.1633C69.1494 23.7911 70.0336 22.9535 70.8712 22.0228C70.2662 22.5347 67.2881 23.1861 66.7762 23.3257L65.799 24.396C66.2178 24.396 66.9623 24.3029 67.5207 24.1633Z" fill="#C7A008"/>
<path d="M64.5891 12.9952C61.6109 13.3675 60.0753 15.8803 59.8427 16.1595C60.9595 15.2288 62.3089 14.5308 63.8446 14.2051C67.5207 13.3209 70.7316 14.4378 72.7325 16.9041L73.989 15.8803C71.988 13.4605 68.2653 12.1111 64.5891 12.9952Z" fill="#C7A008"/>
<path d="M74.5474 25.1406C74.9197 24.8614 75.5246 24.5356 75.8969 24.1633L71.9415 20.6268C71.6158 20.999 71.3831 21.604 71.0108 21.8832L74.5474 25.1406Z" fill="#C7A008"/>
<path d="M94.8827 34.6335C90.7412 31.19 90.9738 23.8841 93.0213 21.5574L91.2065 10.0636L87.2046 10.5754L87.0185 11.5992H90.0432L91.6719 22.0228C89.6244 24.3495 88.6471 27.4673 89.2986 30.3524C89.8105 32.586 91.2065 34.3543 93.1609 35.378C93.3471 35.4711 93.5797 35.5642 93.7659 35.6572L93.8124 35.7968L95.0223 35.983C94.9758 36.0295 95.1154 34.7266 94.8827 34.6335Z" fill="#C7A008"/>
<path d="M78.9216 11.7388L78.7354 12.7625H83.2958L84.6452 20.1614L85.669 19.1377L84.5987 11.32L78.9216 11.7388Z" fill="#C7A008"/>
<path d="M86.7393 26.0712L85.2502 29.887L85.6225 30.9108L87.7165 25.094L86.7393 26.0712Z" fill="#C7A008"/>
<path d="M82.3651 23.698L81.3413 24.7217L80.2245 31.6088L81.2948 31.981L82.3651 23.698Z" fill="#C7A008"/>
<path d="M102.887 21.4644C103.491 21.8832 104.003 22.4416 104.376 23.0931C104.701 23.6049 104.888 24.1168 105.074 24.7683C105.586 26.8623 104.981 29.0959 103.678 30.8642C103.538 31.0504 103.398 31.2365 103.259 31.3761C103.771 30.9108 110.285 26.1178 103.957 19.8357C96.9767 17.5555 94.3243 22.0693 94.0916 22.3951C94.8362 21.7901 95.6738 21.2317 96.6045 20.906C98.9312 19.9753 101.258 20.301 102.887 21.4644Z" fill="#C7A008"/>
<path d="M99.3965 21.9297C99.3965 21.9763 100.42 20.906 100.42 20.906C99.1638 20.9525 98.5589 21.5575 98.652 21.8367C98.5589 21.9297 98.5124 22.0693 98.4658 22.1624C98.6985 22.0228 99.2104 21.9297 99.3965 21.9297Z" fill="#C7A008"/>
<path d="M101.723 23.5119C101.77 23.698 101.77 23.8376 101.77 24.0237C101.77 24.2564 101.677 24.4891 101.584 24.6752C101.77 24.5821 103.259 24.1168 102.7 22.4416C102.747 22.5347 101.677 23.5119 101.723 23.5119Z" fill="#C7A008"/>
<path d="M98.4193 28.7702C99.8153 28.8167 101.397 27.9791 102.514 26.4435C99.6757 27.0484 96.651 22.2554 96.9302 21.7901C95.8599 22.5812 94.8827 24.0703 94.8362 25.1406C94.7431 27.095 96.3718 28.6771 98.4193 28.7702Z" fill="#C7A008"/>
<path d="M114.101 41.1948L114.753 41.6136L122.943 17.0437L116.8 15.6476L116.754 17.0902L121.686 18.1605L114.101 41.1948Z" fill="#C7A008"/>
<path d="M104.376 12.9952L104.422 14.3912L110.937 15.6942L113.45 27.6068L114.473 26.5831L112.054 14.5308L104.376 12.9952Z" fill="#C7A008"/>
<path d="M109.401 26.5831L107.586 36.7275L108.61 37.0532L110.425 25.5594L109.401 26.5831Z" fill="#C7A008"/>
<path d="M24.8491 40.4502L21.8244 29.3751L20.7076 30.1662L23.5462 40.7294L24.8491 40.4502Z" fill="#C7A008"/>
<path d="M24.0581 23.8376C23.3601 24.5821 21.7779 26.0247 20.8938 26.5831L20.3354 24.8613L19.172 21.0456L18.4275 18.4862L17.6829 19.4169L18.4275 21.9762L19.5908 25.7455L20.1492 27.4672C21.4057 26.7692 23.1739 25.2802 24.0581 23.8376Z" fill="#C7A008"/>
<path d="M67.2416 17.2763C66.2643 16.904 64.9149 16.9971 64.1703 17.8347C63.9842 18.0209 63.6584 18.4862 63.5654 18.7189C64.2634 18.1605 65.5663 18.0209 66.3574 18.3466L67.2416 17.2763Z" fill="#7D7F68"/>
<path d="M23.2204 20.7198C23.1274 20.1614 22.569 19.6961 22.2898 19.5565C21.8244 19.3238 20.9403 19.2773 20.3353 19.4169C20.4284 19.7891 20.568 20.2545 20.6145 20.4406C20.8472 20.4872 21.266 20.5337 21.4987 20.6268C21.7779 20.7664 22.2432 21.0456 22.3363 21.6505C22.4759 22.395 22.4294 23.1396 22.1036 23.698C22.9878 22.8604 23.4066 21.9297 23.2204 20.7198Z" fill="#7D7F68"/>
<path d="M24.7324 20.6798C24.3136 18.4462 21.3819 17.1898 18.4503 18.7719L19.1948 21.3313L20.3582 25.1471L20.9166 26.8688C23.1037 25.5193 25.2908 23.7976 24.7324 20.6798ZM21.8473 24.1699C21.5215 23.1461 20.8235 20.9125 20.8235 20.9125C20.8235 20.9125 20.6839 20.4471 20.4978 19.8887C21.1027 19.7957 21.7077 19.8422 22.173 20.0749C22.4522 20.2145 22.9175 20.4937 23.0106 21.0986C23.2898 22.3085 22.871 23.2392 21.8473 24.1699Z" fill="#3C5AA6"/>
<path d="M68.7534 17.1432C67.1248 15.6541 64.6119 15.7472 63.1228 17.3759C61.6338 19.0046 61.7268 21.5174 63.3555 23.0065C63.4951 23.1461 63.6347 23.2392 63.7743 23.3322L69.0327 17.3759C68.9396 17.3294 68.8465 17.2363 68.7534 17.1432ZM63.8209 21.3313C63.309 20.4006 63.402 19.1907 64.1931 18.3531C64.9377 17.562 66.0545 17.3294 67.0317 17.7016L63.8209 21.3313Z" fill="#3567B0"/>
<path d="M75.7573 16.4852L72.8722 19.2773L75.6177 21.7436L75.7573 16.4852Z" fill="#1E2D5F"/>
<path d="M102.7 22.4881C102.747 22.6743 102.747 22.8604 102.747 23.0465C102.7 24.1633 101.677 25.001 100.42 24.9544C99.1638 24.9079 98.1866 23.9772 98.2331 22.8604C98.2797 21.8367 99.2104 20.999 100.327 20.9525C100.094 20.906 99.8618 20.8594 99.6292 20.8594C97.5351 20.7664 95.8599 22.2555 95.7668 24.0703C95.6738 26.0247 97.2559 27.6534 99.3034 27.6999C101.397 27.793 103.073 26.3039 103.166 24.3495C103.305 23.698 103.073 23.0465 102.7 22.4881Z" fill="#3466AF"/>
<path d="M39.6004 24.7217C39.6004 25.8386 38.5766 26.7227 37.3668 26.7227C36.1103 26.7227 35.1331 25.8386 35.1331 24.7217C35.1331 23.698 36.0173 22.8139 37.1806 22.7208C36.9479 22.6743 36.7153 22.6743 36.4826 22.6743C34.3886 22.6743 32.7599 24.2099 32.7599 26.0712C32.7599 28.0257 34.3886 29.5613 36.4361 29.5613C38.5301 29.5613 40.1588 28.0257 40.1588 26.0712C40.1588 25.3732 39.9261 24.7683 39.5538 24.2099C39.5538 24.3495 39.6004 24.5356 39.6004 24.7217Z" fill="url(#paint7_linear_2_550)"/>
<path d="M115.66 13.4671L114.729 17.2828L113.891 13.0483L102.444 10.5354L102.537 16.9106L104.259 17.2828L104.119 18.4462C104.119 18.4462 104.073 18.4462 104.073 18.3997C101.932 17.2828 99.2797 17.1432 96.8134 18.1205C95.9758 18.4462 95.1847 18.865 94.4867 19.3769L92.765 8.48793H85.1799L84.9938 9.74434H76.99L76.0593 15.3284L75.4078 14.4908C73.4534 12.1176 70.6613 10.8146 67.5436 10.7216L74.3375 7.09191L69.5911 0.0187531L61.0288 9.88395L62.5179 11.6988C61.1684 12.2572 60.0051 13.0017 59.0279 13.9324L51.6755 7.41765L49.1161 12.3037L49.2092 7.55725L37.7153 11.2334L38.0411 17.3759L39.9955 16.864L40.2747 19.9818C38.0411 18.9581 35.3421 19.0046 32.8758 20.0749C32.1313 20.4006 31.4332 20.7729 30.8283 21.2382C31.2471 19.3303 31.154 17.469 30.4095 15.7938C29.5719 13.8393 28.0363 12.1641 26.2214 11.1404C24.9185 10.2562 23.3829 9.74434 21.7542 9.55821C17.7988 8.8602 13.0058 9.55821 8.30588 11.5592C6.58413 12.3037 4.95544 13.1413 3.51289 14.072L1.69807 15.2353L2.81488 17.0967L6.25839 22.96L7.32867 24.7283L9.19003 23.7976L9.46923 23.658L18.0315 42.7369L18.8691 44.5517L20.777 43.9468L25.3838 42.4577L27.4313 41.8062L26.9195 39.7587L24.4532 30.3589C25.1512 29.847 25.8026 29.2886 26.4076 28.6837C26.268 29.8005 26.361 30.9638 26.6403 32.0341C27.2917 34.3143 28.7808 36.1291 30.8748 37.1063C33.1085 38.1766 35.854 38.1766 38.3668 37.1063C39.6232 36.5479 40.7866 35.8033 41.7172 34.8261L42.043 38.5954L50.1399 37.3855V30.1262L67.0317 38.5023V30.4519C67.7297 30.4054 68.3812 30.2658 69.0792 30.1262C70.9405 29.6609 72.5227 29.0559 73.9653 28.2183L73.2672 32.546L82.3879 33.9885L82.8998 30.6846L85.273 35.1053L86.7156 32.3133L87.2274 36.9202L97.558 38.735L96.9995 35.2449C98.3956 35.3845 99.8846 35.1984 101.327 34.6865C101.653 34.5469 102.025 34.4073 102.304 34.2212L101.886 37.9439L108.773 38.9211L108.819 41.7597L115.985 43.9933L125.339 15.8403L115.66 13.4671ZM75.2682 17.6551L75.7335 17.1432L75.1751 20.6798L73.6861 19.3303L75.2682 17.6551ZM69.2188 3.13653L71.7316 6.5335L64.5654 10.0701L64.0535 9.32554C64.0535 9.37207 69.2188 3.13653 69.2188 3.13653ZM21.8007 29.3817L24.6393 40.3637L20.0324 41.8528L10.5395 20.6333C10.0276 20.9125 9.05043 21.3778 8.21282 21.7966L4.76931 15.9799C6.11879 15.0957 7.65441 14.3512 9.23656 13.6532C13.7038 11.7453 17.9849 11.1869 21.3819 11.7918C22.5918 11.9314 23.8482 12.3037 24.965 13.0483C26.5006 13.9324 27.664 15.1423 28.362 16.7244C30.0372 20.5402 27.2917 26.0312 21.8007 29.3817ZM43.0667 27.4272C43.0202 29.0559 42.4153 30.6846 41.3915 32.0806C40.4143 33.4301 39.1113 34.5004 37.5292 35.1984C33.5273 36.9202 29.5254 35.1984 28.4551 31.3826C27.4313 27.7064 29.8511 23.3323 33.7134 21.657C36.1797 20.5868 38.6925 20.866 40.4608 22.0758C41.5776 22.8204 42.4153 23.9372 42.7875 25.3332C42.8341 25.4728 42.8806 25.6589 42.8806 25.7985C43.0667 26.357 43.0667 26.9154 43.0667 27.4272ZM64.8911 35.1984L48.0924 26.8223L48.1389 35.6172L43.8113 36.2222L43.4855 32.5925C44.835 30.3123 45.3004 27.5668 44.6023 25.1005C44.2301 23.7511 43.5321 22.5412 42.5549 21.6105L41.9499 14.2116L39.9955 14.7235L39.9024 12.8621L46.8825 10.7681L47.3013 17.9343L52.42 10.7216L57.4922 15.5146L50.4656 22.9134L57.0734 25.5193C57.818 26.9154 58.9348 28.0787 60.3308 28.9629C61.6803 29.8005 63.2624 30.3123 64.8911 30.4519V35.1984ZM56.1893 23.0065L53.8626 22.1224L56.0497 20.0283C55.9101 21.0056 55.9566 21.9828 56.1893 23.0065ZM74.4306 25.2401C72.8019 26.5896 70.9871 27.4272 68.5673 28.0322C68.0554 28.1718 67.497 28.2648 67.0317 28.2648C63.1694 28.6371 59.9585 26.8688 58.7487 24.0303C58.6091 23.7045 58.4695 23.3323 58.3764 22.96C57.818 20.5402 58.2833 18.3997 59.4932 16.6779C59.8189 16.166 60.2377 15.7472 60.7031 15.3284C61.8199 14.3047 63.2624 13.6067 64.8911 13.1879C68.5673 12.3037 71.7782 13.4205 73.7791 15.8403L66.799 23.2857C67.2644 23.3788 68.0089 23.2392 68.5673 23.0996C70.2425 22.6808 71.1732 21.7966 71.9643 20.866L74.7563 23.3788L75.5939 24.1233C75.2217 24.5421 74.8494 24.9144 74.4306 25.2401ZM89.2749 35.1519L87.7393 25.1005L85.5987 30.6381L82.3879 23.7045H82.3414L81.0849 31.7549L75.7335 30.8242L76.4781 26.357C76.6642 26.1708 76.8969 25.9847 77.083 25.752L78.8048 23.9837L77.1296 22.4481L78.9444 11.7453H84.3423L85.6918 19.1442L87.2274 10.582H91.0897L92.7184 21.0056C90.6709 23.3323 89.6937 26.45 90.3452 29.3351C90.8571 31.5688 92.2531 33.337 94.2075 34.4073C94.3936 34.5004 94.6263 34.5935 94.8125 34.6865L94.9986 36.036L89.2749 35.1519ZM102.63 31.848C102.025 32.2668 101.374 32.639 100.676 32.8717C99.2797 33.3836 97.9302 33.5232 96.6738 33.244C95.8362 33.0578 95.0451 32.7321 94.3471 32.2668C93.2768 31.4757 92.4858 30.3589 92.1135 28.9163C91.6947 27.1946 92.067 25.3332 92.9976 23.7045C93.463 22.9134 94.0679 22.1689 94.7659 21.5174C95.557 20.8194 96.4877 20.2145 97.4649 19.8422C99.8381 18.9581 102.165 19.2838 103.794 20.4471C104.398 20.866 104.91 21.4244 105.283 22.0758C105.562 22.5877 105.794 23.1461 105.934 23.7511C106.446 25.8451 105.841 28.0787 104.538 29.847C104.119 30.6381 103.421 31.2896 102.63 31.848ZM114.729 41.3409L110.774 40.1775L110.448 25.5659L108.447 36.8271L104.119 36.1291L104.445 32.8717C107.284 30.4985 108.773 26.7292 107.935 23.2857C107.563 21.7966 106.818 20.4471 105.701 19.4699L106.074 15.6542L104.445 15.2353L104.492 13.1879L111.937 14.6769L114.45 26.5431L117.009 15.8868L122.686 17.1432L114.729 41.3409Z" fill="url(#paint8_linear_2_550)"/>
<path d="M120.058 39.7057H120.244C120.476 39.7057 120.663 39.6126 120.663 39.3799C120.663 39.2403 120.523 39.0542 120.244 39.0542H120.058V39.7057ZM120.058 40.6829H119.778V38.9146C119.918 38.8681 120.058 38.8681 120.29 38.8681C120.569 38.8681 120.756 38.9146 120.849 39.0077C120.942 39.1007 121.035 39.1938 121.035 39.3799C121.035 39.6126 120.895 39.7522 120.709 39.7987C120.849 39.8453 120.988 39.9849 120.988 40.2175C121.035 40.4967 121.081 40.5898 121.081 40.6364H120.802C120.756 40.5898 120.709 40.4037 120.663 40.171C120.616 39.9383 120.523 39.8453 120.29 39.8453H120.058V40.6829ZM120.383 38.4027C119.685 38.4027 119.127 39.0077 119.127 39.7522C119.127 40.4967 119.685 41.1017 120.43 41.1017C121.128 41.1017 121.686 40.4967 121.686 39.7522C121.64 39.0077 121.081 38.4027 120.383 38.4027ZM120.383 38.1701C121.267 38.1701 121.919 38.8681 121.919 39.7522C121.919 40.6364 121.221 41.3344 120.337 41.3344C119.453 41.3344 118.755 40.6364 118.755 39.7522C118.801 38.8681 119.499 38.1701 120.383 38.1701Z" fill="black"/>
</g>
<defs>
<linearGradient id="paint0_linear_2_550" x1="6.18903" y1="24.9191" x2="1.52726" y2="16.2321" gradientUnits="userSpaceOnUse">
<stop stop-color="#0070B6"/>
<stop offset="1" stop-color="#1D2C5E"/>
</linearGradient>
<linearGradient id="paint1_linear_2_550" x1="63.0419" y1="7.17195" x2="68.9587" y2="0.832165" gradientUnits="userSpaceOnUse">
<stop stop-color="#0070B6"/>
<stop offset="1" stop-color="#1D2C5E"/>
</linearGradient>
<linearGradient id="paint2_linear_2_550" x1="37.2281" y1="17.7417" x2="36.5227" y2="11.8142" gradientUnits="userSpaceOnUse">
<stop stop-color="#0070B6"/>
<stop offset="1" stop-color="#1D2C5E"/>
</linearGradient>
<linearGradient id="paint3_linear_2_550" x1="101.861" y1="16.6006" x2="101.579" y2="11.2502" gradientUnits="userSpaceOnUse">
<stop stop-color="#125D9E"/>
<stop offset="1" stop-color="#1D2C5E"/>
</linearGradient>
<linearGradient id="paint4_linear_2_550" x1="82.1143" y1="8.88857" x2="75.9048" y2="18.7668" gradientUnits="userSpaceOnUse">
<stop stop-color="#125D9E"/>
<stop offset="1" stop-color="#1D2C5E"/>
</linearGradient>
<linearGradient id="paint5_linear_2_550" x1="27.1619" y1="24.7325" x2="31.3955" y2="33.0588" gradientUnits="userSpaceOnUse">
<stop stop-color="#105FA1"/>
<stop offset="1" stop-color="#1D2C5E"/>
</linearGradient>
<linearGradient id="paint6_linear_2_550" x1="11.1872" y1="21.8906" x2="16.0873" y2="33.2496" gradientUnits="userSpaceOnUse">
<stop stop-color="#105FA1"/>
<stop offset="1" stop-color="#1D2C5E"/>
</linearGradient>
<linearGradient id="paint7_linear_2_550" x1="32.6924" y1="26.1103" x2="40.1048" y2="26.1103" gradientUnits="userSpaceOnUse">
<stop stop-color="#3C5AA6"/>
<stop offset="0.933" stop-color="#2B73B9"/>
<stop offset="1" stop-color="#2A75BB"/>
</linearGradient>
<linearGradient id="paint8_linear_2_550" x1="1.7339" y1="22.295" x2="125.395" y2="22.295" gradientUnits="userSpaceOnUse">
<stop stop-color="#3C5AA6"/>
<stop offset="0.933" stop-color="#2B73B9"/>
<stop offset="1" stop-color="#2A75BB"/>
</linearGradient>
<clipPath id="clip0_2_550">
<rect width="125.409" height="46" fill="white"/>
</clipPath>
</defs>
</svg>
